<svg width="45" height="38" viewBox="0 0 45 38" fill="none" xmlns="http://www.w3.org/2000/svg">
<path d="M22.5 7.91667C25.5314 7.91667 28.3149 8.79309 30.5368 10.2506L37.3565 4.75647C33.3915 1.80493 28.2012 0 22.5 0C13.8607 0 6.36876 4.11653 2.59839 10.1489L10.1817 15.2044C12.0187 10.9557 16.8328 7.91667 22.5 7.91667Z" fill="#F44336"/>
<path d="M44.8051 21.3777C44.9223 20.5993 45 19.8052 45 18.9998C45 17.6416 44.8243 16.319 44.5036 15.0415H22.5V22.9582H34.6616C33.6778 25.1175 31.926 26.9446 29.6963 28.214L37.3077 33.2883C41.3426 30.2976 44.1037 26.1096 44.8051 21.3777Z" fill="#2196F3"/>
<path d="M9.375 19C9.375 17.6645 9.66911 16.3901 10.1817 15.2044L2.59838 10.1489C0.945625 12.7934 0 15.8019 0 19C0 22.1623 0.92823 25.1375 2.54665 27.7605L10.1396 22.6986C9.65332 21.5403 9.375 20.299 9.375 19Z" fill="#FFC107"/>
<path d="M22.5 30.0835C16.7896 30.0835 11.9445 26.9984 10.1396 22.6987L2.54663 27.7607C6.29858 33.8415 13.8184 38.0002 22.5 38.0002C28.177 38.0002 33.3539 36.2192 37.3077 33.2886L29.6963 28.2143C27.6397 29.3851 25.1782 30.0835 22.5 30.0835Z" fill="#00B060"/>
<path opacity="0.1" d="M22.5001 37.604C15.8782 37.604 9.92394 35.2969 5.71423 31.6211C9.83514 35.5264 15.8185 37.9998 22.5001 37.9998C29.1199 37.9998 35.0537 35.5752 39.1653 31.7311C34.9681 35.3472 29.059 37.604 22.5001 37.604Z" fill="black"/>
<path opacity="0.1" d="M22.5 22.5625V22.9583H34.6616L34.8515 22.5625H22.5Z" fill="black"/>
<path d="M44.9896 19.233C44.9911 19.155 45 19.0784 45 19.0002C45 18.9781 44.9959 18.9567 44.9958 18.9346C44.9945 19.0343 44.9886 19.1329 44.9896 19.233Z" fill="#E6E6E6"/>
<path opacity="0.2" d="M22.5 15.0415V15.4373H44.5979C44.5684 15.3067 44.5362 15.1712 44.5036 15.0415H22.5Z" fill="white"/>
<path d="M44.5036 15.0417H22.5V22.9583H34.6616C32.7704 27.1092 28.0822 30.0833 22.5 30.0833C15.2513 30.0833 9.375 25.1211 9.375 19C9.375 12.8788 15.2513 7.91667 22.5 7.91667C25.1285 7.91667 27.5511 8.59855 29.6035 9.72275C29.9176 9.89516 30.2417 10.057 30.5368 10.2506L37.3565 4.75647L37.2027 4.65655C33.2568 1.76869 28.1316 0 22.5 0C10.0735 0 0 8.50655 0 19C0 29.4934 10.0735 38 22.5 38C33.9706 38 43.4165 30.7464 44.8051 21.3779C44.9223 20.5995 45 19.8054 45 19C45 17.6417 44.8243 16.3191 44.5036 15.0417Z" fill="url(#paint0_linear_62_4)"/>
<path opacity="0.1" d="M29.6035 9.32679C27.5511 8.20259 25.1285 7.52071 22.5 7.52071C15.2513 7.52071 9.375 12.4828 9.375 18.604C9.375 18.6708 9.37606 18.723 9.37744 18.7896C9.50389 12.7608 15.3304 7.91654 22.5 7.91654C25.1285 7.91654 27.5511 8.59842 29.6035 9.72263C29.9176 9.89503 30.2417 10.0569 30.5368 10.2505L37.3565 4.75635L30.5368 9.85463C30.2417 9.66107 29.9176 9.4992 29.6035 9.32679Z" fill="black"/>
<path opacity="0.2" d="M22.5 0.395833C28.0782 0.395833 33.1555 2.13495 37.0862 4.9742L37.3565 4.75647L37.1502 4.60476C33.2043 1.7169 28.1316 0 22.5 0C10.0735 0 0 8.50655 0 19C0 19.0668 0.0109864 19.1312 0.0117874 19.1979C0.138817 8.79676 10.1526 0.395833 22.5 0.395833Z" fill="white"/>
<defs>
<linearGradient id="paint0_linear_62_4" x1="0" y1="19" x2="45" y2="19" gradientUnits="userSpaceOnUse">
<stop stop-color="white" stop-opacity="0.2"/>
<stop offset="1" stop-color="white" stop-opacity="0"/>
</linearGradient>
</defs>
</svg>
