<svg width="20" height="19" viewBox="0 0 20 19" fill="none" xmlns="http://www.w3.org/2000/svg">
<path d="M2.5 4.75H4.16667H17.5" stroke="black" stroke-width="2" stroke-linecap="round" stroke-linejoin="round"/>
<path d="M6.66663 4.75016V3.16683C6.66663 2.7469 6.84222 2.34418 7.15478 2.04724C7.46734 1.75031 7.89127 1.5835 8.33329 1.5835H11.6666C12.1087 1.5835 12.5326 1.75031 12.8451 2.04724C13.1577 2.34418 13.3333 2.7469 13.3333 3.16683V4.75016M15.8333 4.75016V15.8335C15.8333 16.2534 15.6577 16.6562 15.3451 16.9531C15.0326 17.25 14.6087 17.4168 14.1666 17.4168H5.83329C5.39127 17.4168 4.96734 17.25 4.65478 16.9531C4.34222 16.6562 4.16663 16.2534 4.16663 15.8335V4.75016H15.8333Z" stroke="black" stroke-width="2" stroke-linecap="round" stroke-linejoin="round"/>
<path d="M8.33337 8.7085V13.4585" stroke="black" stroke-width="2" stroke-linecap="round" stroke-linejoin="round"/>
<path d="M11.6666 8.7085V13.4585" stroke="black" stroke-width="2" stroke-linecap="round" stroke-linejoin="round"/>
</svg>
